<svg xmlns="http://www.w3.org/2000/svg" xmlns:xlink="http://www.w3.org/1999/xlink" viewBox="0,0,256,256" width="480px" height="480px"><g transform=""><g fill="none" fill-rule="nonzero" stroke="none" stroke-width="1" stroke-linecap="butt" stroke-linejoin="miter" stroke-miterlimit="10" stroke-dasharray="" stroke-dashoffset="0" font-family="none" font-weight="none" font-size="none" text-anchor="none" style="mix-blend-mode: normal"><g transform="scale(3.2,3.2)"><path d="M65.467,34.253l2.012,-5.534l-2.893,-12.318l-6.96,-14.019l-3.589,-1.371l-3.449,-0.44l2.271,13.079l-11.304,-11.14h-4.633l-2.269,1.643l10.579,18.902l-10.772,3.569l-16.271,10.702l-3.57,12.344l5.556,1.625l-9.675,2.349v2.824l-1.643,0.714l5.414,5.647l8.684,2.645l9.883,-4.942l-4.217,13.177l15.335,5.75l27.544,-15.739v-13.499z" fill="#e037b0"></path><path d="M34.692,54.011l-9.712,-1.821l-3.843,-1.129l-10.637,2.583v1.269l9.5,2.597l10,-2.268l-0.008,0.567z" fill="#920064"></path><path d="M60.5,24.01l-0.26,-2.24l-6.573,-20.807l-3.079,-0.392l2.271,13.079l0.76,1.451l0.381,2.196v6.713h-1.5l-2.26,-5.5l-13.16,-15.5l-0.158,-0.5l-2.269,1.643l10.579,18.902l-10.772,3.569l-16.271,10.702l-3.57,12.344l5.556,1.625l1.935,0.045l2.87,0.85l3.88,-12.72l7.88,-5.22l5.26,-3.24l20.5,-7z" fill="#dcd5f2"></path><path d="M46,62.01l-2.18,15.8l0.136,1.649l-15.335,-5.75l4.217,-13.177l0.838,-0.978l3.683,-0.66z" fill="#978fbf"></path><path d="M20,59.629v-0.525l-9.028,-2.842l-2.115,0.92l5.414,5.647l8.684,2.645l-0.045,-0.537z" fill="#dcd5f2"></path><path d="M20,56.51l-9.5,-2.597v2.725l9.5,2.991l1,-0.382v-2.964z" fill="#f2faff"></path><path d="M30,54.242l-10,2.268v3.119l10,-3.824z" fill="#e1ebf2"></path><path d="M54,64.33v9.389l-2,1.143v-9.392z" fill="#978fbf"></path><path d="M60,60.91v9.381l-2,1.143v-9.384z" fill="#978fbf"></path><path d="M66,66.863v-9.393l-2,1.16v9.375z" fill="#978fbf"></path><path d="M66,34.25l2,-5.5l-2.94,-12.52l-7.06,-14.22l-3.92,-1.5l-4.1,-0.52l2.12,12.21l-10.34,-10.19h-5l-2.76,2l10.5,18.76l-10.26,3.4l-7.72,5.08l-3.44,2.26l-5.32,3.5l-3.76,13l4.24,1.24l-8.24,2v2.89l-2,0.87l6,6.26l9,2.74l9,-4.5l-4,12.5l16,6l28,-16v-13.88zM71,63.43l-27.09,15.48l-14.67,-5.5l3.71,-11.6l0.73,-2.26l-2.13,1.07l-8.64,4.32l-8.37,-2.55l-4.82,-5.04l0.68,-0.29l0.6,-0.26v-2.76l7.48,-1.82l3.63,-0.88l-3.59,-1.05l-3.28,-0.96l3.38,-11.69l5.69,-3.74l3.47,-2.28l6.9,-4.54l10.13,-3.36l1.15,-0.38l-0.59,-1.06l-10.06,-17.98l1.77,-1.29h4.27l10.05,9.9l2.22,2.19l-0.53,-3.07l-1.89,-10.88l2.63,0.34l3.45,1.31l6.83,13.77l2.85,12.12l-1.9,5.22l-0.13,0.35l0.13,0.34l5.94,15.71z" fill="#920064"></path><path d="M69.19,42.68l-0.87,0.55l-27.1,17.06l4.78,1.72l23.77,-14.96l0.86,-0.55z" fill="#5a4958"></path><path d="M41.74,60.47l-4.38,-1.58l-4.24,-22.24l-8.81,-2.75l-1.23,-0.39l3.44,-2.26l1.26,0.37l8.96,2.63z" fill="#5a4958"></path><path d="M36.083,60.004c0,0 -0.279,0.002 -1.628,0.012c-1.349,0.01 -2.453,-1.325 -2.465,-2.982c-0.012,-1.657 1.071,-3.008 2.42,-3.018c1.349,-0.01 1.628,-0.012 1.628,-0.012z" fill="#b6c9d6"></path><ellipse cx="35.56504" cy="57.27188" transform="rotate(-0.42398) scale(1.00003,1.00003)" rx="2" ry="3" fill="#8096b0"></ellipse><path d="M58,40c0,3.314 -2.686,6 -6,6c-3.314,0 -6,-2.686 -6,-6c0,-4 2.686,-10 6,-10c3.314,0 6,6 6,10z" fill="#ffffff"></path><path d="M23.276,42.577l-1.756,5.733l1.9,0.56l2.349,-7.639z" fill="#920064"></path><path d="M21.591,42.079l-1.377,-2.494l-2.234,7.685l1.94,0.58z" fill="#920064"></path><circle cx="52.5" cy="38.5" r="1.5" fill="#5a4958"></circle></g></g></g></svg>